<?xml version="1.0" encoding="utf-8"?>
<!-- Generator: Adobe Illustrator 16.0.0, SVG Export Plug-In . SVG Version: 6.00 Build 0)  -->
<!DOCTYPE svg PUBLIC "-//W3C//DTD SVG 1.1//EN" "http://www.w3.org/Graphics/SVG/1.1/DTD/svg11.dtd">
<svg version="1.1" id="Capa_1" xmlns="http://www.w3.org/2000/svg" xmlns:xlink="http://www.w3.org/1999/xlink" x="0px" y="0px"
	 width="323.333px" height="248px" viewBox="0 0 323.333 248" enable-background="new 0 0 323.333 248" xml:space="preserve">
<g>
	<linearGradient id="SVGID_1_" gradientUnits="userSpaceOnUse" x1="47.6309" y1="72.8438" x2="259.6919" y2="72.8438">
		<stop  offset="0" style="stop-color:#FB994F"/>
		<stop  offset="1" style="stop-color:#EF5366"/>
	</linearGradient>
	<path fill="url(#SVGID_1_)" d="M259.692,123.174c-0.067-12.518,0.025-25.036-0.027-37.54c0.343-17.527-7.244-35.093-20.381-46.716
		l0.015-0.29c-7.153-6.061-15.318-10.965-24.352-13.595c-10.808-3.3-22.155-2.248-33.266-2.419
		c-15.069,0.04-30.124-0.158-45.179,0.066c-2.288-0.158-4.602-0.355-6.837,0.21c-27.283-0.512-54.593-0.21-81.876-0.289
		c-0.171,11.058-0.066,22.115-0.158,33.174c0.013,6.824,0.066,13.648,0.092,20.472c18.448-0.131,36.948,0.342,55.382-0.262
		c26.047,1.065,52.187-0.487,78.247,0.723c9.742,2.012,18.172,8.323,23.208,16.778l0.854,0.17l-0.145,1.012
		c4.063,8.955,3.405,18.908,3.341,28.506C225.636,123.135,242.664,123.135,259.692,123.174z"/>
</g>
<linearGradient id="SVGID_2_" gradientUnits="userSpaceOnUse" x1="13.0752" y1="21.2827" x2="45.5371" y2="77.5084">
	<stop  offset="0" style="stop-color:#FAFAFA"/>
	<stop  offset="0.2833" style="stop-color:#F7F7F7"/>
	<stop  offset="0.47" style="stop-color:#EEEEEE"/>
	<stop  offset="0.629" style="stop-color:#DFDFDF"/>
	<stop  offset="0.7723" style="stop-color:#CACACA"/>
	<stop  offset="0.9038" style="stop-color:#AFAFAF"/>
	<stop  offset="1" style="stop-color:#969696"/>
</linearGradient>
<path fill="url(#SVGID_2_)" d="M47.789,22.601c-12.333-0.053-24.653-0.185-36.974-0.014c0.04,17.961-0.026,35.922,0.171,53.883
	c0.486-0.078,1.473-0.25,1.973-0.329c11.583,0.434,23.167-0.039,34.764,0.105c-0.026-6.824-0.079-13.648-0.092-20.472
	C47.723,44.716,47.618,33.659,47.789,22.601z"/>
<g>
	<path fill="#162B40" d="M261.637,87.87c4.826,0.158,9.875-0.802,14.568,0.592c2.328,1.88,4.405,4.261,5.693,7.008
		c0.356,4.273,0.276,8.585,0.895,12.858c-0.922-0.841-1.841-1.669-2.761-2.484c1.591-2.459,2.077-5.194,0.04-7.522
		c-0.409,1.486-1.223,4.458-1.631,5.944c-0.565-2.144-1.185-4.247-1.775-6.364c-0.133-1.329-0.21-2.644-0.276-3.958
		c-3.209,0-6.43,0.013-9.625-0.236C263.531,93.511,261.558,91.039,261.637,87.87z"/>
</g>
<g>
	<linearGradient id="SVGID_3_" gradientUnits="userSpaceOnUse" x1="264.5952" y1="115.3643" x2="293.9165" y2="115.3643">
		<stop  offset="0" style="stop-color:#F9B776"/>
		<stop  offset="1" style="stop-color:#F47960"/>
	</linearGradient>
	<path fill="url(#SVGID_3_)" d="M282.793,108.329c-0.922-0.841-1.841-1.669-2.761-2.484c1.591-2.459,2.077-5.194,0.04-7.522
		c-0.409,1.486-1.223,4.458-1.631,5.944c-0.565-2.144-1.185-4.247-1.775-6.364c-0.133-1.329-0.21-2.644-0.276-3.958
		c-3.209,0-6.43,0.013-9.625-0.236c-1.868,5.272-1.329,10.953-1.709,16.448c-0.303,3.169-0.422,6.351-0.461,9.533
		c2.38-0.092,4.772-0.184,7.166-0.262c0.342,2.721,0.684,5.443,0.948,8.178c0.051,0.605,0.156,1.828,0.209,2.445
		c0.146,2.315,0.237,4.643,0.356,6.969c6.94-1.104,13.778-2.735,20.642-4.26c-2.905-6.968-6.01-13.845-8.836-20.84
		C284.463,110.604,283.701,109.407,282.793,108.329z"/>
</g>
<g>
	<linearGradient id="SVGID_4_" gradientUnits="userSpaceOnUse" x1="289.1665" y1="160.3135" x2="315.6665" y2="160.3135">
		<stop  offset="0" style="stop-color:#FFFFFF"/>
		<stop  offset="1" style="stop-color:#F4F5FF"/>
	</linearGradient>
	<path fill="url(#SVGID_4_)" d="M307.761,139.941c0.673,0.289,2.025,0.853,2.713,1.141c2.336,6.231,4.043,12.672,4.757,19.256
		c0.741,6.771,0.603,13.671-0.924,20.348c-2.364-0.538-4.729-1.074-7.079-1.627c-5.932-1.482-11.977-2.597-18.062-3.278
		c0.867-9.145,2.812-18.443,7.947-26.395C299.856,145.529,303.995,142.854,307.761,139.941z"/>
</g>
<linearGradient id="SVGID_5_" gradientUnits="userSpaceOnUse" x1="199.7788" y1="88.583" x2="105.6307" y2="251.6523">
	<stop  offset="0" style="stop-color:#8171DC"/>
	<stop  offset="1" style="stop-color:#724EC4"/>
</linearGradient>
<path fill="url(#SVGID_5_)" d="M259.625,137.888c-0.013-4.905,0.067-9.81,0.067-14.713c-17.028-0.04-34.056-0.04-51.082,0
	c-0.015,4.602,0.196,9.244-0.581,13.792c-1.84,10.23-8.769,19.342-18.077,23.931c-5.023,2.458-10.611,3.604-16.213,3.484
	c-20.669-0.105-41.339-0.053-62.009-0.158c-21.34,0.184-42.667,0.013-63.994,0.066c-0.04,7.087-0.04,14.161-0.092,21.248
	c-0.053,8.48-0.21,16.961-0.092,25.455c-0.092,2.326-0.131,4.669-0.184,7.021c5.956-0.171,11.926-0.225,17.896-0.025
	c14.673-0.159,29.36,0.144,44.034-0.225c14.029,0.671,28.111,0.065,42.154,0.25c11.361,0.118,22.72-0.275,34.068,0.105
	c5.93-0.316,11.873-0.486,17.816-0.553c1.933-0.303,3.854-0.605,5.799-0.906c0.251-2.235,0.644-4.433,1.222-6.602
	c-2.273-0.867-4.548-1.735-6.758-2.707c2.683-1.343,5.614-0.384,8.349,0.314c1.908,2.064,3.368,4.484,4.695,6.968
	c0.46-0.064,1.38-0.183,1.841-0.249c12.989-4.522,23.904-13.845,31.53-25.18l0.552-0.975c2.774-4.824,5.182-9.886,6.707-15.264
	C260.755,161.606,259.456,149.591,259.625,137.888z"/>
<g>
	<linearGradient id="SVGID_6_" gradientUnits="userSpaceOnUse" x1="249.7964" y1="168.4775" x2="308.2368" y2="168.4775">
		<stop  offset="0" style="stop-color:#D6D8D1"/>
		<stop  offset="0.0417" style="stop-color:#DCDEDA"/>
		<stop  offset="0.1501" style="stop-color:#E7E8EB"/>
		<stop  offset="0.285" style="stop-color:#EEF0F6"/>
		<stop  offset="0.4744" style="stop-color:#F3F4FD"/>
		<stop  offset="1" style="stop-color:#F4F5FF"/>
	</linearGradient>
	<path fill="url(#SVGID_6_)" d="M280.229,195.729c5.733-5.208,9.664-12.216,10.532-19.96c0.815-9.165,2.643-18.486,7.469-26.456
		c2.577-3.865,6.468-6.547,10.007-9.466c-2.828-1.354-5.682-2.617-8.587-3.748c-1.671-1.157-3.301-2.328-4.932-3.51l-0.802,0.171
		c-6.863,1.525-13.701,3.156-20.642,4.26c-0.119-2.326-0.211-4.654-0.356-6.969c-0.053-0.617-0.158-1.84-0.209-2.445
		c0.076,1.762,0.144,3.537,0.223,5.313c-0.618,0.158-1.841,0.46-2.446,0.617c-3.761,1.117-7.377,2.579-10.861,4.353
		c-0.169,11.703,1.131,23.719-2.352,35.08c-1.525,5.378-3.933,10.439-6.707,15.264l-0.552,0.975
		c-0.434,6.706-0.133,13.438,0.145,20.144c5.745-1.445,11.333-3.444,16.857-5.576C271.656,201.514,276.009,198.687,280.229,195.729z
		"/>
	<linearGradient id="SVGID_7_" gradientUnits="userSpaceOnUse" x1="251.644" y1="222.1904" x2="304.1733" y2="222.1904">
		<stop  offset="0" style="stop-color:#D6D8D1"/>
		<stop  offset="0.0417" style="stop-color:#DCDEDA"/>
		<stop  offset="0.1501" style="stop-color:#E7E8EB"/>
		<stop  offset="0.285" style="stop-color:#EEF0F6"/>
		<stop  offset="0.4744" style="stop-color:#F3F4FD"/>
		<stop  offset="1" style="stop-color:#F4F5FF"/>
	</linearGradient>
	<path fill="url(#SVGID_7_)" d="M295.888,208.363c-6.758,4.76-14.213,8.572-22.299,10.466c-3.8,0.986-7.639,1.881-11.505,2.591
		c-3.472,0.461-6.956,0.749-10.44,1.025c0.922,6.969,2.906,13.729,4.655,20.513c14.568-0.185,29.149,0.196,43.72-0.185
		c0.631-13.846,2.957-27.56,4.154-41.351C301.712,204.077,298.874,206.339,295.888,208.363z"/>
</g>
<linearGradient id="SVGID_8_" gradientUnits="userSpaceOnUse" x1="185.52" y1="199.3359" x2="314.3892" y2="199.3359">
	<stop  offset="0" style="stop-color:#F9B776"/>
	<stop  offset="1" style="stop-color:#F47960"/>
</linearGradient>
<path fill="url(#SVGID_8_)" d="M307.736,179.055c-5.574-1.485-11.256-2.603-16.975-3.286c-0.868,7.744-4.799,14.752-10.532,19.96
	c-4.22,2.958-8.573,5.785-13.213,8.045c-5.524,2.132-11.112,4.131-16.857,5.576c-10.361,2.71-21.012,4.142-31.675,5.036
	c-0.461,0.066-1.381,0.185-1.841,0.249c-1.327-2.483-2.787-4.903-4.695-6.968c-2.734-0.698-5.666-1.657-8.349-0.314
	c2.21,0.972,4.484,1.84,6.758,2.707c-0.578,2.169-0.971,4.366-1.222,6.602c-1.945,0.301-3.866,0.604-5.799,0.906
	c-5.943,0.066-11.887,0.236-17.816,0.553c3.063,1.34,6.102,2.932,9.48,3.353c9.809,1.407,19.735,0,29.584,1
	c9.008,0.59,18.053,0.564,27.06-0.027c3.484-0.276,6.969-0.564,10.44-1.025c3.866-0.71,7.705-1.604,11.505-2.591
	c8.086-1.894,15.541-5.706,22.299-10.466c2.985-2.024,5.824-4.286,8.285-6.94c5.023-5.959,8.479-13.137,10.216-20.737
	C312.167,180.146,309.945,179.608,307.736,179.055z"/>
<linearGradient id="SVGID_9_" gradientUnits="userSpaceOnUse" x1="13.0752" y1="162.7598" x2="45.5376" y2="218.9863">
	<stop  offset="0" style="stop-color:#FAFAFA"/>
	<stop  offset="0.2833" style="stop-color:#F7F7F7"/>
	<stop  offset="0.47" style="stop-color:#EEEEEE"/>
	<stop  offset="0.629" style="stop-color:#DFDFDF"/>
	<stop  offset="0.7723" style="stop-color:#CACACA"/>
	<stop  offset="0.9038" style="stop-color:#AFAFAF"/>
	<stop  offset="1" style="stop-color:#969696"/>
</linearGradient>
<path fill="url(#SVGID_9_)" d="M47.789,164.078c-12.333-0.053-24.653-0.184-36.974-0.014c0.04,17.961-0.026,35.923,0.171,53.884
	c0.486-0.079,1.473-0.25,1.973-0.33c11.583,0.435,23.167-0.037,34.764,0.105c-0.026-6.823-0.079-13.647-0.092-20.473
	C47.723,186.193,47.618,175.137,47.789,164.078z"/>
<linearGradient id="SVGID_10_" gradientUnits="userSpaceOnUse" x1="230.3335" y1="242.5742" x2="319.1665" y2="242.5742">
	<stop  offset="0" style="stop-color:#8171DC"/>
	<stop  offset="1" style="stop-color:#452242"/>
</linearGradient>
<ellipse fill="url(#SVGID_10_)" cx="274.75" cy="242.574" rx="44.417" ry="1.617"/>
<g>
	<g>
		
			<linearGradient id="SVGID_11_" gradientUnits="userSpaceOnUse" x1="507.0884" y1="-38.8389" x2="526.8267" y2="-38.8389" gradientTransform="matrix(1 0 0 -1 -245.96 129.3398)">
			<stop  offset="0" style="stop-color:#8900B5"/>
			<stop  offset="1" style="stop-color:#FF0087"/>
		</linearGradient>
		<path fill="url(#SVGID_11_)" d="M280.7,168.296c0.111,0.106,0.167,0.244,0.167,0.414c0,0.276-0.082,0.521-0.246,0.731
			c-0.165,0.212-0.422,0.323-0.771,0.334c-0.838,0.011-1.592-0.053-2.26-0.19c-0.742,1.58-1.636,2.893-2.681,3.937
			c-1.044,1.044-2.075,1.567-3.095,1.567c-0.932,0-1.631-0.496-2.098-1.487c-0.468-0.991-0.731-2.319-0.796-3.983
			c-0.637,1.844-1.354,3.217-2.155,4.118s-1.65,1.353-2.553,1.353c-1.019,0-1.787-0.635-2.307-1.901s-0.778-2.972-0.778-5.113
			c0-1.559,0.138-3.271,0.412-5.137c0.075-0.53,0.21-0.899,0.406-1.104c0.196-0.207,0.507-0.311,0.931-0.311
			c0.317,0,0.564,0.068,0.739,0.207s0.263,0.393,0.263,0.764c0,0.075-0.012,0.219-0.031,0.43c-0.318,2.174-0.479,4.023-0.479,5.551
			c0,1.421,0.123,2.52,0.366,3.292c0.243,0.774,0.571,1.162,0.985,1.162c0.373,0,0.819-0.39,1.344-1.169
			c0.525-0.779,1.048-1.936,1.568-3.467c0.519-1.533,0.959-3.359,1.319-5.479c0.084-0.487,0.239-0.825,0.469-1.011
			c0.228-0.186,0.538-0.277,0.931-0.277c0.328,0,0.569,0.071,0.725,0.214c0.152,0.144,0.23,0.358,0.23,0.646
			c0,0.168-0.012,0.302-0.031,0.396c-0.299,1.729-0.445,3.457-0.445,5.186c0,1.177,0.039,2.115,0.119,2.814
			c0.079,0.699,0.232,1.232,0.461,1.6c0.229,0.365,0.559,0.547,0.993,0.547c0.509,0,1.075-0.383,1.702-1.152
			c0.625-0.77,1.197-1.727,1.718-2.871c-0.647-0.402-1.136-0.925-1.464-1.566c-0.329-0.642-0.491-1.381-0.491-2.219
			c0-0.837,0.129-1.545,0.39-2.123c0.26-0.578,0.614-1.011,1.064-1.297c0.449-0.285,0.951-0.43,1.503-0.43
			c0.679,0,1.217,0.244,1.614,0.732c0.397,0.487,0.597,1.155,0.597,2.004c0,1.197-0.261,2.528-0.778,3.992
			c0.541,0.094,1.176,0.143,1.908,0.143C280.411,168.138,280.588,168.19,280.7,168.296z M276.477,167.311
			c0.412-1.188,0.619-2.168,0.619-2.942c0-0.445-0.059-0.771-0.175-0.979c-0.116-0.207-0.274-0.311-0.478-0.311
			c-0.286,0-0.52,0.168-0.699,0.502s-0.271,0.809-0.271,1.424C275.475,166.044,275.809,166.813,276.477,167.311z"/>
		
			<linearGradient id="SVGID_12_" gradientUnits="userSpaceOnUse" x1="524.6626" y1="-42.0908" x2="533.6812" y2="-42.0908" gradientTransform="matrix(1 0 0 -1 -245.96 129.3398)">
			<stop  offset="0" style="stop-color:#8900B5"/>
			<stop  offset="1" style="stop-color:#FF0087"/>
		</linearGradient>
		<path fill="url(#SVGID_12_)" d="M281.334,175.057c-0.291-0.255-0.436-0.541-0.436-0.859c0-0.274,0.1-0.514,0.302-0.716
			c0.201-0.201,0.498-0.302,0.89-0.302c0.139,0,0.301,0.013,0.486,0.04s0.326,0.045,0.422,0.056
			c-0.012-0.274-0.072-0.535-0.186-0.778c-0.11-0.244-0.25-0.479-0.42-0.709c-0.17-0.228-0.328-0.426-0.478-0.596
			c-0.329,0.625-0.655,1.145-0.979,1.559c-0.323,0.414-0.676,0.807-1.058,1.176c-0.19,0.191-0.393,0.287-0.604,0.287
			c-0.17,0-0.307-0.062-0.412-0.184c-0.106-0.122-0.159-0.273-0.159-0.453c0-0.212,0.073-0.408,0.224-0.589l0.207-0.254
			c0.582-0.721,1.021-1.315,1.319-1.78c0.181-0.309,0.392-0.72,0.636-1.233c0.243-0.515,0.482-1.046,0.717-1.599
			c0.201-0.466,0.619-0.699,1.256-0.699c0.297,0,0.504,0.025,0.619,0.08c0.117,0.053,0.176,0.138,0.176,0.254
			c0,0.063-0.021,0.164-0.063,0.302s-0.101,0.276-0.175,0.414c-0.191,0.382-0.285,0.706-0.285,0.97c0,0.159,0.057,0.334,0.167,0.525
			s0.283,0.43,0.517,0.716c0.34,0.444,0.597,0.823,0.771,1.138c0.175,0.313,0.263,0.654,0.263,1.025
			c0,0.105-0.012,0.254-0.031,0.445c0.52-0.201,1.129-0.737,1.828-1.606c0.129-0.149,0.271-0.224,0.431-0.224
			c0.138,0,0.247,0.063,0.325,0.19c0.08,0.127,0.119,0.302,0.119,0.525c0,0.403-0.101,0.731-0.302,0.985
			c-0.53,0.658-1.036,1.105-1.521,1.344c-0.481,0.238-1.078,0.369-1.788,0.391c-0.425,0.359-0.929,0.541-1.513,0.541
			C282.049,175.438,281.627,175.312,281.334,175.057z"/>
	</g>
</g>
<g>
	<linearGradient id="SVGID_13_" gradientUnits="userSpaceOnUse" x1="-131.8496" y1="114.1729" x2="-104.8799" y2="114.1729">
		<stop  offset="0" style="stop-color:#FAFAFA"/>
		<stop  offset="1" style="stop-color:#969696"/>
	</linearGradient>
	<path fill="url(#SVGID_13_)" d="M-131.348,101.217c8.823-0.433,17.672-0.368,26.468,0.407c-4.116,2.421-6.364,6.785-10.033,9.718
		c-2.511,1.892-3.787,4.892-6.062,7.033c-3.142,2.959-6.258,5.944-9.295,9.021C-132.768,118.94-131.624,109.909-131.348,101.217z"/>
</g>
<g>
	<linearGradient id="SVGID_14_" gradientUnits="userSpaceOnUse" x1="-139.644" y1="143.6245" x2="-104.8799" y2="143.6245">
		<stop  offset="0" style="stop-color:#FAFAFA"/>
		<stop  offset="1" style="stop-color:#F47960"/>
	</linearGradient>
	<path fill="url(#SVGID_14_)" d="M-117.121,146.378c2.012-5.93,7.179-9.69,12.149-13.031c0.013,6.825,0.066,13.649,0.092,20.473
		c-11.597-0.143-23.181,0.329-34.764-0.105c4.405-0.813,8.928-0.973,13.28-2.077C-122.998,150.468-120.106,148.271-117.121,146.378z
		"/>
</g>
</svg>
