<?xml version="1.0" encoding="utf-8"?>
<!-- Generator: Adobe Illustrator 16.0.0, SVG Export Plug-In . SVG Version: 6.00 Build 0)  -->
<!DOCTYPE svg PUBLIC "-//W3C//DTD SVG 1.1//EN" "http://www.w3.org/Graphics/SVG/1.1/DTD/svg11.dtd">
<svg version="1.1" id="Capa_1" xmlns="http://www.w3.org/2000/svg" xmlns:xlink="http://www.w3.org/1999/xlink" x="0px" y="0px"
	 width="350px" height="250px" viewBox="0 0 350 250" enable-background="new 0 0 350 250" xml:space="preserve">
<linearGradient id="SVGID_1_" gradientUnits="userSpaceOnUse" x1="122.896" y1="50.5347" x2="171.5596" y2="50.5347">
	<stop  offset="0" style="stop-color:#FB994F"/>
	<stop  offset="1" style="stop-color:#EF5366"/>
</linearGradient>
<path fill="url(#SVGID_1_)" d="M171.274,29.799c-0.945-1.48-1.891-2.944-2.819-4.426c0.766-0.214,2.302-0.642,3.069-0.856
	c-8.834-4.854-19.918-5.676-29.128-1.356c-13.135,5.426-21.471,20.329-19.097,34.393c1.071,9.549,7.139,17.777,14.886,23.167
	c3.016-0.821,6.049-1.625,9.084-2.409c-0.911-2.784-2.124-5.426-3.534-7.979c1.785,0.161,3.569,0.34,5.371,0.5
	c0.625-2.286,1.231-4.57,1.856-6.854c-4.89-5.836-11.904-12.511-10.208-20.846c3.98-5.641,10.977-3.41,14.653,1.267
	c2.659-1.91,4.961-5.194,8.621-4.891c2.712,0.536,4.71,2.713,7.049,4.07c0.126-0.696,0.357-2.052,0.482-2.731
	c-0.964-1.534-1.909-3.069-2.856-4.586C169.56,34.101,170.417,31.942,171.274,29.799z"/>
<g>
	<g>
		<path fill="#8272DD" d="M232.778,27.819c12.976-13.261,33.569-17.901,51.079-12.029c21.667,6.763,36.838,29.413,34.484,52.062
			c-1.502,23.559-21.651,44.066-45.175,45.939c-20.953,2.481-42.067-9.905-50.866-28.931c-6.318-0.231-12.671,0.286-18.954-0.356
			l-1.394-2.195c6.338-0.197,12.691-0.143,19.027-0.125c-0.519-1.856-1.019-3.73-1.517-5.586c-9.728-0.231-19.474,0.072-29.2-0.268
			c0.392-0.517,1.159-1.588,1.536-2.106c8.869-0.928,17.83-0.143,26.737-0.286c-0.163-1.659-0.467-4.998-0.627-6.657
			c-6.158-1-14.404,2.624-19.168-2.177c6.192-0.464,12.403-0.429,18.596-0.357C217.856,51.109,222.656,37.296,232.778,27.819z
			 M269.044,34.154c-1.464,7.425-6.586,13.065-10.013,19.544c-0.589,9.459-0.034,18.972-0.233,28.467
			c10.033,0.036,20.061,0.178,30.075-0.107c0.285-9.708,0.105-19.436,0.249-29.163c-5.282-0.071-10.566-0.089-15.848-0.071
			c0.229-6.05,0.071-12.119-0.749-18.116C271.65,34.565,269.919,34.297,269.044,34.154z M250.662,52.788
			c-0.108,9.744-0.021,19.49-0.091,29.234c1.98,0.071,3.944,0.125,5.926,0.179c0.018-9.799-0.034-19.597,0.034-29.396
			C254.569,52.805,252.606,52.788,250.662,52.788z"/>
	</g>
	<g>
		<path fill="#8272DD" d="M47.928,121.413c5.801-21.471,27.914-36.696,50.028-34.589c22.756,1.231,42.745,20.846,44.369,43.565
			c2.338,21.205-11.243,42.978-31.501,49.849c-21.417,8.426-47.636-1.444-58.63-21.54c-2.962-5.284-4.586-11.139-6.122-16.957
			c-7.354,0-14.725,0.215-22.078-0.356c6.069-4.712,14.849-1.179,22.024-2.266c0-1.394,0-4.177-0.018-5.569
			c-11.352-0.66-22.9,1.213-34.107-1.124c10.798-3.214,22.452-1,33.607-1.32c0.518-2.286,1.124-4.534,1.784-6.766
			c-8.173-0.286-16.418,0.519-24.541-0.34c-0.41-0.48-1.231-1.444-1.641-1.926C30.026,121.305,38.987,122.037,47.928,121.413z
			 M85.659,125.108c-0.768,9.152-0.054,18.381-0.285,27.573c9.708,0.018,19.399,0.034,29.109-0.089
			c-0.214-9.316,0.268-18.635-0.036-27.951c-5.086-0.036-10.172-0.088-15.259-0.16c-0.446-6.373,1.838-13.887-2.91-19.079
			C93.671,112.452,89.567,118.752,85.659,125.108z M77.591,124.445c-0.143,9.425-0.143,18.866-0.018,28.307
			c1.374-0.016,4.105-0.053,5.479-0.089c0.053-9.403,0.107-18.83-0.019-28.235C81.214,124.428,79.394,124.428,77.591,124.445z"/>
	</g>
	<g>
		<path fill="#8272DD" d="M212.021,196.945c3.374-11.085,13.492-19.975,25.325-20.277c15.135-1.32,29.54,11.924,29.323,27.147
			c1,16.35-15.115,30.714-31.233,28.093c-11.831-1.108-20.863-10.764-24.13-21.739c-4.086,0.071-8.175,0.105-12.242-0.18
			c3.533-2.659,8.299-1.122,12.368-1.479l-0.269-3.713c-6.87-0.02-13.76,0.197-20.613-0.501c6.621-2.534,13.868-0.875,20.774-1.283
			l0.319-4.248c-5.354-0.018-10.851,0.411-15.988-1.338C201.098,196.889,206.558,196.855,212.021,196.945z M233.83,199.746
			c-0.606,4.926-0.409,9.904-0.499,14.866c5.729-0.07,11.458-0.089,17.188-0.053c0.122-5.372-0.073-10.744-0.056-16.116
			c-2.856-0.056-5.728-0.072-8.585-0.108c-0.054-3.837-0.374-7.674-0.909-11.457C238.524,191.108,235.615,195.143,233.83,199.746z
			 M229.262,198.514c1.07,5.479-2.624,13.296,2.604,17.01c0.359-5.675,0.445-11.37,0.554-17.063
			C231.636,198.479,230.047,198.496,229.262,198.514z"/>
	</g>
</g>
<g>
	<path fill="#F15C62" d="M168.455,25.373c0.766-0.214,2.302-0.642,3.069-0.856c11.208,6.461,18.188,19.847,16.134,32.75
		c-1.694,15.046-15.331,27.557-30.43,28.075c-6.711,0.678-13.083-1.856-19.043-4.623c3.016-0.821,6.049-1.625,9.084-2.409
		c-0.911-2.784-2.124-5.426-3.534-7.979c1.785,0.161,3.569,0.34,5.371,0.5c0.625-2.286,1.231-4.57,1.856-6.854
		c1.481,1.571,2.98,3.105,4.48,4.658c6.925-7.068,14.51-14.688,15.634-25.059c0.126-0.696,0.357-2.052,0.482-2.731
		c-0.964-1.534-1.909-3.069-2.856-4.586c0.856-2.159,1.713-4.318,2.57-6.461C170.329,28.319,169.383,26.855,168.455,25.373z"/>
</g>
<g>
	<path fill="#FFFFFE" d="M269.044,34.154c0.875,0.143,2.606,0.412,3.481,0.554c0.82,5.998,0.979,12.066,0.749,18.116
		c5.281-0.019,10.565,0,15.848,0.071c-0.144,9.727,0.036,19.455-0.249,29.163c-10.015,0.285-20.042,0.144-30.075,0.107
		c0.199-9.495-0.355-19.008,0.233-28.467C262.458,47.219,267.58,41.579,269.044,34.154z"/>
</g>
<g>
	<path fill="#FEFDFF" d="M140.754,43.132c3.98-5.641,10.977-3.41,14.653,1.267c2.659-1.91,4.961-5.194,8.621-4.891
		c2.712,0.536,4.71,2.713,7.049,4.07c-1.124,10.37-8.709,17.99-15.634,25.059c-1.5-1.553-2.999-3.087-4.48-4.658
		C146.073,58.142,139.059,51.467,140.754,43.132z"/>
</g>
<g>
	<path fill="#FEFEFD" d="M250.662,52.788c1.944,0,3.907,0.017,5.869,0.017c-0.068,9.799-0.017,19.597-0.034,29.396
		c-1.981-0.054-3.945-0.107-5.926-0.179C250.642,72.278,250.554,62.532,250.662,52.788z"/>
</g>
<g>
	<g>
		<path fill="#F05865" d="M177.145,136.566c10.852-3.838,23.668,4.05,25.112,15.453c2.143,10.496-6.104,21.633-16.83,22.489
			c-11.083,1.912-22.078-8.013-21.917-19.096C163.332,147.059,169.043,138.884,177.145,136.566z M173.934,150.13
			c0.195,6.031,5.46,10.154,8.959,14.564c3.89-4.285,9.298-8.586,9.191-14.904c-2.105-4.104-6.444-2.481-9.104-0.037
			C180.591,147.059,175.45,145.828,173.934,150.13z"/>
	</g>
</g>
<g>
	<g>
		<path fill="#F05864" d="M295.155,140.331c16.688-5.087,35.604,8.209,36.143,25.684c1.568,17.007-14.564,32.553-31.538,30.286
			c-13.494-1.231-24.736-13.063-25.433-26.574C273.22,156.624,282.394,143.598,295.155,140.331z M289.927,164.266
			c2.462,6.961,7.853,12.315,12.903,17.509c5.924-6.104,12.048-12.636,13.903-21.257c-2.019-1.48-3.5-4.267-6.282-4.283
			c-3.302-0.644-5.353,2.677-7.692,4.335c-2.144-1.641-3.908-4.391-6.907-4.408C291.817,156,288.105,160.284,289.927,164.266z"/>
	</g>
</g>
<g>
	<path fill="#FEFEFF" d="M173.934,150.13c1.516-4.302,6.657-3.071,9.047-0.377c2.659-2.444,6.998-4.067,9.104,0.037
		c0.106,6.318-5.302,10.619-9.191,14.904C179.395,160.284,174.129,156.161,173.934,150.13z"/>
</g>
</svg>
